REM DIRINDEX 1\2,1\3,1\4,1\5
REM DIRNAME "folder01","folder02","folder03","folder04","folder05"
TITLE ""
FILE "1Q_t_1558-1567.mp3" MP3
  TRACK 01 AUDIO
    TITLE "2:cjc172_5659"
    INDEX 01 00:00:00
  TRACK 02 AUDIO
    TITLE "0:"
    INDEX 01 00:01:27
  TRACK 03 AUDIO
    TITLE "3:cjc172_5660"
    INDEX 01 00:01:70
  TRACK 04 AUDIO
    TITLE "0:"
    INDEX 01 00:02:74
  TRACK 05 AUDIO
    TITLE "4:cjc172_5661"
    INDEX 01 00:03:09
  TRACK 06 AUDIO
    TITLE "0:"
    INDEX 01 00:05:53
  TRACK 07 AUDIO
    TITLE "5:cjc172_5662"
    INDEX 01 00:05:58
  TRACK 08 AUDIO
    TITLE "0:"
    INDEX 01 00:10:03
  TRACK 09 AUDIO
    TITLE "3:cjc172_5663"
    INDEX 01 00:10:48
  TRACK 10 AUDIO
    TITLE "0:"
    INDEX 01 00:11:47
  TRACK 11 AUDIO
    TITLE "4:cjc172_5664"
    INDEX 01 00:11:55
  TRACK 12 AUDIO
    TITLE "0:"
    INDEX 01 00:13:74
  TRACK 13 AUDIO
    TITLE "5:cjc172_5665"
    INDEX 01 00:14:07
  TRACK 14 AUDIO
    TITLE "0:"
    INDEX 01 00:18:63
  TRACK 15 AUDIO
    TITLE "3:cjc172_5666"
    INDEX 01 00:19:33
  TRACK 16 AUDIO
    TITLE "0:"
    INDEX 01 00:20:40
  TRACK 17 AUDIO
    TITLE "4:cjc172_5667"
    INDEX 01 00:20:50
  TRACK 18 AUDIO
    TITLE "0:"
    INDEX 01 00:24:25
  TRACK 19 AUDIO
    TITLE "5:cjc172_5668"
    INDEX 01 00:24:28
  TRACK 20 AUDIO
    TITLE "0:"
    INDEX 01 00:30:19
  TRACK 21 AUDIO
    TITLE "3:cjc172_5669"
    INDEX 01 00:30:64
  TRACK 22 AUDIO
    TITLE "0:"
    INDEX 01 00:32:10
  TRACK 23 AUDIO
    TITLE "4:cjc172_5670"
    INDEX 01 00:32:20
  TRACK 24 AUDIO
    TITLE "0:"
    INDEX 01 00:38:25
  TRACK 25 AUDIO
    TITLE "5:cjc172_5671"
    INDEX 01 00:38:32
  TRACK 26 AUDIO
    TITLE "0:"
    INDEX 01 00:43:45
  TRACK 27 AUDIO
    TITLE "3:cjc172_5672"
    INDEX 01 00:44:17
  TRACK 28 AUDIO
    TITLE "0:"
    INDEX 01 00:45:29
  TRACK 29 AUDIO
    TITLE "4:cjc172_5673"
    INDEX 01 00:45:36
  TRACK 30 AUDIO
    TITLE "0:"
    INDEX 01 00:46:75
  TRACK 31 AUDIO
    TITLE "5:cjc172_5674"
    INDEX 01 00:47:06
  TRACK 32 AUDIO
    TITLE "0:"
    INDEX 01 00:51:04
  TRACK 33 AUDIO
    TITLE "3:cjc172_5675"
    INDEX 01 00:51:51
  TRACK 34 AUDIO
    TITLE "0:"
    INDEX 01 00:52:56
  TRACK 35 AUDIO
    TITLE "4:cjc172_5676"
    INDEX 01 00:52:62
  TRACK 36 AUDIO
    TITLE "0:"
    INDEX 01 00:55:23
  TRACK 37 AUDIO
    TITLE "5:cjc172_5677"
    INDEX 01 00:55:29
  TRACK 38 AUDIO
    TITLE "0:"
    INDEX 01 00:59:64
  TRACK 39 AUDIO
    TITLE "3:cjc172_5678"
    INDEX 01 01:00:40
  TRACK 40 AUDIO
    TITLE "0:"
    INDEX 01 01:01:57
  TRACK 41 AUDIO
    TITLE "4:cjc172_5679"
    INDEX 01 01:01:63
  TRACK 42 AUDIO
    TITLE "0:"
    INDEX 01 01:04:61
  TRACK 43 AUDIO
    TITLE "5:cjc172_5680"
    INDEX 01 01:04:67
  TRACK 44 AUDIO
    TITLE "0:"
    INDEX 01 01:10:62
  TRACK 45 AUDIO
    TITLE "3:cjc172_5681"
    INDEX 01 01:11:30
  TRACK 46 AUDIO
    TITLE "0:"
    INDEX 01 01:12:43
  TRACK 47 AUDIO
    TITLE "4:cjc172_5682"
    INDEX 01 01:12:49
  TRACK 48 AUDIO
    TITLE "0:"
    INDEX 01 01:14:54
  TRACK 49 AUDIO
    TITLE "5:cjc172_5683"
    INDEX 01 01:14:60
  TRACK 50 AUDIO
    TITLE "0:"
    INDEX 01 01:19:49
  TRACK 51 AUDIO
    TITLE "3:cjc172_5684"
    INDEX 01 01:20:17
  TRACK 52 AUDIO
    TITLE "0:"
    INDEX 01 01:21:17
  TRACK 53 AUDIO
    TITLE "4:cjc172_5685"
    INDEX 01 01:21:24
  TRACK 54 AUDIO
    TITLE "0:"
    INDEX 01 01:25:12
  TRACK 55 AUDIO
    TITLE "5:cjc172_5686"
    INDEX 01 01:25:18
  TRACK 56 AUDIO
    TITLE "0:"
    INDEX 01 01:30:10
  TRACK 57 AUDIO
    TITLE "3:cjc172_5687"
    INDEX 01 01:30:66
  TRACK 58 AUDIO
    TITLE "0:"
    INDEX 01 01:32:12
  TRACK 59 AUDIO
    TITLE "4:cjc172_5688"
    INDEX 01 01:32:18
  TRACK 60 AUDIO
    TITLE "0:"
    INDEX 01 01:33:37
  TRACK 61 AUDIO
    TITLE "5:cjc172_5689"
    INDEX 01 01:33:43
  TRACK 62 AUDIO
    TITLE "0:"
    INDEX 01 01:37:67
